<svg xmlns="http://www.w3.org/2000/svg" width="26" height="27" viewBox="0 0 26 27" fill="none">
<g clip-path="url(#clip0_61_1283)">
<path d="M20.6321 14.6089L23.685 14.6089C24.1065 14.6089 24.4482 14.2672 24.4482 13.8456L24.4482 1.6342C24.4482 1.21272 24.1065 0.87096 23.685 0.87096L20.6321 0.87096C20.2107 0.87096 19.8689 1.21267 19.8689 1.6342L19.8689 13.8457C19.8689 14.2672 20.2106 14.6089 20.6321 14.6089Z" fill="white"/>
<path d="M1.56668 12.5859C1.7013 13.7698 2.80726 14.609 3.99884 14.609L9.94913 14.609C9.44345 15.5145 9.17202 18.0755 9.18406 19.1217C9.20401 20.8535 10.6381 22.2412 12.3699 22.2412L12.9997 22.2412C13.4215 22.2412 13.7629 21.8999 13.7629 21.478C13.7629 19.7131 14.4502 16.5275 15.7463 15.2313C16.6186 14.359 17.3644 14.0428 18.3423 13.5541L18.3423 2.10206C16.8451 1.60304 14.9442 0.871029 12.0467 0.871028L7.05414 0.871028C5.40909 0.871028 4.12788 2.39461 4.76533 4.00438C3.79415 4.26895 3.07793 5.15965 3.07793 6.21356C3.07793 6.51098 3.13531 6.79566 3.2389 7.05729C1.60228 7.5032 0.999862 9.52403 2.13579 10.7929C1.71847 11.2591 1.48833 11.8968 1.56668 12.5859Z" fill="white"/>
</g>
<defs>
<clipPath id="clip0_61_1283">
<rect width="26" height="26" fill="white" transform="translate(26 26.8711) rotate(-180)"/>
</clipPath>
</defs>
</svg>