<svg xmlns="http://www.w3.org/2000/svg" width="22" height="22" viewBox="0 0 22 22" fill="none">
<path d="M21.9185 11.2605C21.7453 11.5126 17.5817 17.417 10.9999 17.417C5.35226 17.417 0.319682 11.5466 0.107928 11.2963C-0.0359761 11.1258 -0.0359761 10.8755 0.107928 10.7041C0.319682 10.4539 5.35226 4.58344 10.9999 4.58344C16.6476 4.58344 21.6802 10.4539 21.8919 10.7041C22.0249 10.8618 22.0368 11.09 21.9185 11.2605ZM10.9999 5.50011C6.47247 5.50011 2.16771 9.81768 1.07414 11.0002C2.16591 12.1836 6.46607 16.5003 10.9999 16.5003C16.2974 16.5003 20.0366 12.1891 20.9496 11.0249C19.8954 9.88003 15.5659 5.50011 10.9999 5.50011Z" fill="white"/>
<path d="M10.9997 14.667C8.97753 14.667 7.33301 13.0225 7.33301 11.0003C7.33301 8.97808 8.97753 7.33355 10.9997 7.33355C13.0219 7.33355 14.6664 8.97808 14.6664 11.0003C14.6664 13.0225 13.0219 14.667 10.9997 14.667ZM10.9997 8.25018C9.48354 8.25018 8.24967 9.48405 8.24967 11.0002C8.24967 12.5164 9.48354 13.7503 10.9997 13.7503C12.5159 13.7503 13.7498 12.5164 13.7498 11.0002C13.7498 9.48405 12.5159 8.25018 10.9997 8.25018Z" fill="white"/>
</svg>