<svg xmlns="http://www.w3.org/2000/svg" width="24" height="24" viewBox="0 0 24 24" fill="none">
<path d="M21.503 18.3813H19.222C18.359 18.3813 18.099 17.6823 16.552 16.1343C15.2 14.8313 14.629 14.6693 14.287 14.6693C13.814 14.6693 13.685 14.7993 13.685 15.4503V17.5023C13.685 18.0573 13.505 18.3823 12.055 18.3823C10.6483 18.2878 9.28416 17.8605 8.07497 17.1355C6.86578 16.4105 5.84612 15.4086 5.1 14.2123C3.32839 12.0074 2.09571 9.41941 1.5 6.65433C1.5 6.31233 1.63 6.00233 2.282 6.00233H4.562C5.148 6.00233 5.359 6.26333 5.589 6.86633C6.696 10.1243 8.585 12.9583 9.352 12.9583C9.646 12.9583 9.774 12.8283 9.774 12.0953V8.73933C9.677 7.20833 8.864 7.07933 8.864 6.52533C8.87428 6.37917 8.94114 6.24278 9.05037 6.14513C9.15961 6.04747 9.30261 5.99625 9.449 6.00233H13.033C13.523 6.00233 13.685 6.24633 13.685 6.83233V11.3623C13.685 11.8513 13.895 12.0133 14.043 12.0133C14.337 12.0133 14.563 11.8513 15.102 11.3133C16.2574 9.90432 17.2013 8.3345 17.904 6.65333C17.9759 6.45149 18.1119 6.27871 18.2912 6.16135C18.4705 6.04399 18.6832 5.9885 18.897 6.00333H21.178C21.862 6.00333 22.007 6.34533 21.862 6.83333C21.0324 8.69175 20.0058 10.4558 18.8 12.0953C18.554 12.4703 18.456 12.6653 18.8 13.1053C19.026 13.4473 19.826 14.1153 20.363 14.7503C21.145 15.5303 21.794 16.4323 22.285 17.4203C22.481 18.0563 22.154 18.3813 21.503 18.3813Z" fill="#3C4767"/>
</svg>