<svg xmlns="http://www.w3.org/2000/svg" width="25" height="25" viewBox="0 0 25 25" fill="none">
<g clip-path="url(#clip0_61_693)">
<path d="M22.1816 3.44696C20.9365 2.09654 19.2281 1.35278 17.3706 1.35278C15.9822 1.35278 14.7107 1.79173 13.5913 2.65733C13.0265 3.09426 12.5147 3.62882 12.0634 4.25274C11.6124 3.629 11.1004 3.09426 10.5353 2.65733C9.41614 1.79173 8.14462 1.35278 6.75621 1.35278C4.89876 1.35278 3.19012 2.09654 1.94503 3.44696C0.7148 4.78161 0.0371094 6.60493 0.0371094 8.5813C0.0371094 10.6155 0.795176 12.4775 2.4227 14.4414C3.87864 16.1981 5.97117 17.9814 8.39438 20.0464C9.22181 20.7517 10.1597 21.551 11.1336 22.4025C11.3909 22.6278 11.721 22.7519 12.0634 22.7519C12.4057 22.7519 12.736 22.6278 12.9929 22.4028C13.9667 21.5512 14.9052 20.7515 15.733 20.0459C18.1558 17.9813 20.2484 16.1981 21.7043 14.4412C23.3318 12.4775 24.0897 10.6155 24.0897 8.58112C24.0897 6.60493 23.412 4.78161 22.1816 3.44696Z" fill="white"/>
</g>
<defs>
<clipPath id="clip0_61_693">
<rect width="24.0526" height="24.0526" fill="white" transform="translate(0.0371094 0.0373535)"/>
</clipPath>
</defs>
</svg>