<svg xmlns="http://www.w3.org/2000/svg" width="27" height="26" viewBox="0 0 27 26" fill="none">
  <g clip-path="url(#clip0_61_1292)">
    <path d="M6.239 12.2622H3.18609C2.76461 12.2622 2.42285 12.6039 2.42285 13.0254V25.2369C2.42285 25.6584 2.76456 26.0001 3.18609 26.0001H6.23895C6.66044 26.0001 7.00219 25.6584 7.00219 25.2369V13.0254C7.00219 12.6039 6.66054 12.2622 6.239 12.2622Z" fill="white"/>
    <path d="M25.3044 14.2852C25.1698 13.1012 24.0638 12.2621 22.8723 12.2621H16.922C17.4276 11.3566 17.6991 8.79556 17.687 7.74937C17.6671 6.01763 16.233 4.62988 14.5012 4.62988H13.8714C13.4496 4.62988 13.1082 4.97123 13.1082 5.39312C13.1082 7.15802 12.4209 10.3436 11.1248 11.6398C10.2525 12.5121 9.5067 12.8282 8.52881 13.317V24.769C10.026 25.2681 11.9269 26.0001 14.8244 26.0001H19.817C21.462 26.0001 22.7432 24.4765 22.1058 22.8667C23.077 22.6021 23.7932 21.7114 23.7932 20.6575C23.7932 20.3601 23.7358 20.0754 23.6322 19.8138C25.2688 19.3679 25.8712 17.3471 24.7353 16.0782C25.1526 15.612 25.3828 14.9743 25.3044 14.2852Z" fill="white"/>
  </g>
  <defs>
    <clipPath id="clip0_61_1292">
      <rect width="26" height="26" fill="white" transform="translate(0.871094)"/>
    </clipPath>
  </defs>
</svg>